<?xml version="1.0" encoding="UTF-8" standalone="no"?>
<svg
   xmlns:dc="http://purl.org/dc/elements/1.1/"
   xmlns:cc="http://creativecommons.org/ns#"
   xmlns:rdf="http://www.w3.org/1999/02/22-rdf-syntax-ns#"
   xmlns:svg="http://www.w3.org/2000/svg"
   xmlns="http://www.w3.org/2000/svg"
   viewBox="0 0 2267.72 1133.8533"
   height="1133.8533"
   width="2267.72"
   xml:space="preserve"
   id="svg2"
   version="1.1"><metadata
     id="metadata8"><rdf:RDF><cc:Work
         rdf:about=""><dc:format>image/svg+xml</dc:format><dc:type
           rdf:resource="http://purl.org/dc/dcmitype/StillImage" /></cc:Work></rdf:RDF></metadata><defs
     id="defs6"><clipPath
       id="clipPath26"
       clipPathUnits="userSpaceOnUse"><path
         id="path24"
         d="M 0,850.39 H 1700.79 V 0 H 0 Z" /></clipPath><clipPath
       id="clipPath62"
       clipPathUnits="userSpaceOnUse"><path
         id="path60"
         d="m 977.587,603.696 h 42.994 v 113.533 h -42.994 z" /></clipPath><clipPath
       id="clipPath78"
       clipPathUnits="userSpaceOnUse"><path
         id="path76"
         d="M 0,850.39 H 1700.79 V 0 H 0 Z" /></clipPath></defs><g
     transform="matrix(1.3333333,0,0,-1.3333333,0,1133.8533)"
     id="g10"><g
       transform="translate(1653.1553,804.413)"
       id="g12"><path
         id="path14"
         style="fill:none;stroke:#231815;stroke-width:10;stroke-linecap:butt;stroke-linejoin:miter;stroke-miterlimit:10;stroke-dasharray:none;stroke-opacity:1"
         d="M 0,0 V -747.914" /></g><g
       transform="translate(1653.1553,804.413)"
       id="g16"><path
         id="path18"
         style="fill:none;stroke:#231815;stroke-width:10;stroke-linecap:butt;stroke-linejoin:miter;stroke-miterlimit:10;stroke-dasharray:none;stroke-opacity:1"
         d="M 0,0 H -823.65" /></g><g
       id="g20"><g
         clip-path="url(#clipPath26)"
         id="g22"><g
           transform="translate(1014.5586,566.2572)"
           id="g28"><path
             id="path30"
             style="fill:#009fe8;fill-opacity:1;fill-rule:nonzero;stroke:none"
             d="m 0,0 c -40.863,-7.854 -73.046,-58.605 -68.017,-105.788 5.368,-50.356 49.368,-88.749 100.082,-88.034 53.676,0.758 87.385,43.15 92.464,71.027 h -6.653 c -36.96,0 -73.92,0.114 -110.878,-0.119 -5.667,-0.036 -7.155,1.678 -7.119,7.242 C 0.115,-79.454 0,-43.233 0,-7.012 Z" /></g><g
           transform="translate(1517.998,612.7728)"
           id="g32"><path
             id="path34"
             style="fill:#009fe8;fill-opacity:1;fill-rule:nonzero;stroke:none"
             d="m 0,0 c 0,13.042 0.005,25.404 -0.005,37.765 -0.002,1.846 0.118,3.719 -0.142,5.533 -0.687,4.781 -4.392,8.41 -8.261,8.316 -4.201,-0.102 -7.734,-4.023 -7.773,-9.197 -0.113,-14.777 -0.144,-29.558 0.015,-44.334 0.042,-3.893 -0.547,-6.48 -5.207,-6.341 -6.034,0.179 -12.075,0.194 -18.113,0.167 -3.9,-0.017 -4.932,1.941 -4.894,5.591 0.151,14.408 0.085,28.819 0.032,43.228 -0.007,2.006 0.02,4.169 -0.682,5.985 -1.458,3.776 -4.282,6.109 -8.606,5.339 -4.734,-0.844 -6.855,-4.166 -6.902,-8.696 -0.118,-11.452 -0.049,-22.906 -0.055,-34.36 -10e-4,-2.733 0,-5.466 0,-8.328 -17.767,5.584 -32.434,35.621 -29.083,58.769 4.265,29.448 28.169,51.283 57.129,52.182 C -2.294,112.557 23.381,92.546 29.052,63.441 34.576,35.092 18.893,8.783 0,0" /></g><g
           transform="translate(1255.127,658.4252)"
           id="g36"><path
             id="path38"
             style="fill:#009fe8;fill-opacity:1;fill-rule:nonzero;stroke:none"
             d="m 0,0 c 12.095,0 23.897,0.138 35.688,-0.191 1.328,-0.038 3.303,-2.517 3.753,-4.194 2.85,-10.604 12.815,-17.49 22.833,-15.419 10.618,2.195 17.263,11.713 15.741,22.545 -1.322,9.393 -9.528,15.964 -20.779,16.101 -15.694,0.191 -31.393,0.06 -47.09,0.067 -2.16,0.001 -4.32,0 -6.591,0 C 7.456,43.767 40.647,63.74 69.97,58.416 104.927,52.069 122.063,20.215 119.07,-7.24 115.096,-43.69 82.36,-64.923 52.123,-61.092 15.101,-56.403 -2.893,-22.045 0,0" /></g><g
           transform="translate(1174.5381,605.3177)"
           id="g40"><path
             id="path42"
             style="fill:#009fe8;fill-opacity:1;fill-rule:nonzero;stroke:none"
             d="M 0,0 C 0,11.73 0.209,22.796 -0.055,33.85 -0.361,46.693 -3.429,58.708 -12.551,68.392 -25.331,81.958 -43.189,80.96 -54.569,66.175 -61.338,57.379 -64.583,47.331 -64.788,36.364 -65.013,24.398 -64.84,12.425 -64.84,0.315 c -17.442,5.859 -30.183,34.367 -27.015,59.633 3.319,26.475 27.112,48.265 54.795,50.184 29.28,2.03 54.537,-15.801 62.425,-44.071 C 32.324,41.124 20.91,10.511 0,0" /></g><g
           transform="translate(1514.127,499.3749)"
           id="g44"><path
             id="path46"
             style="fill:#009fe8;fill-opacity:1;fill-rule:nonzero;stroke:none"
             d="m 0,0 c -5.148,-7.861 -12.762,-12.028 -21.866,-13.648 -2.741,-0.488 -5.265,-0.575 -5.243,3.443 0.099,19.012 0.13,38.023 0.206,57.034 10e-4,0.335 0.258,0.669 0.755,1.871 C -14.367,48.332 -5.081,43.429 0.909,33.38 7.538,22.261 7.128,10.884 0,0 m -2.609,-90.296 c -5.135,-7.57 -12.628,-11.651 -21.551,-13.191 -2.799,-0.483 -5.199,-0.439 -5.175,3.527 0.116,18.999 0.144,37.999 0.225,56.999 10e-4,0.333 0.267,0.664 0.771,1.838 11.996,-0.417 21.299,-5.485 27.276,-15.851 6.51,-11.292 5.719,-22.61 -1.546,-33.322 M -25.686,72.026 c -54.785,-0.061 -99.387,-44.412 -99.43,-99.247 -0.044,-55.23 44.508,-100.492 99.202,-100.148 59.442,0.376 100.164,49.862 98.754,99.655 1.494,51.475 -41.396,99.804 -98.526,99.74" /></g><g
           transform="translate(1287.8066,473.3739)"
           id="g48"><path
             id="path50"
             style="fill:#009fe8;fill-opacity:1;fill-rule:nonzero;stroke:none"
             d="m 0,0 c -8.13,0.126 -16.263,0.037 -24.394,0.041 -8.131,0.004 -16.264,0.109 -24.393,-0.04 -4.021,-0.074 -5.162,1.495 -4.477,5.389 2.629,14.913 15.215,26.255 29.326,26.196 C -9.83,31.528 2.131,20.615 5.053,5.787 6.023,0.863 4.184,-0.065 0,0 m 74.758,7.992 c -4.285,52.64 -46.055,90.19 -95.072,91.508 -53.662,1.443 -97.454,-37.19 -102.36,-89.659 -5.081,-54.332 31.764,-93.386 66.206,-103.386 0,7.396 0.17,14.506 -0.062,21.602 -0.146,4.47 1.344,6.119 6.032,6.049 16.814,-0.25 33.641,-0.317 50.451,0.03 5.376,0.112 6.67,-1.928 6.497,-6.736 -0.258,-7.128 -0.067,-14.273 -0.067,-21.608 32.988,8.402 72.933,46.196 68.375,102.2" /></g><g
           transform="translate(1690.0439,804.413)"
           id="g52"><path
             id="path54"
             style="fill:#f7b52c;fill-opacity:1;fill-rule:nonzero;stroke:none"
             d="m 0,0 c 0,-20.373 -16.516,-36.889 -36.889,-36.889 -20.373,0 -36.888,16.516 -36.888,36.889 0,20.373 16.515,36.889 36.888,36.889 C -16.516,36.889 0,20.373 0,0" /></g></g></g><g
       id="g56"><g
         clip-path="url(#clipPath62)"
         id="g58"><g
           transform="translate(1019.9404,605.6674)"
           id="g64"><path
             id="path66"
             style="fill:#009fe8;fill-opacity:1;fill-rule:nonzero;stroke:none"
             d="m 0,0 c 0.179,2.472 0.403,4.418 0.445,6.369 0.112,5.168 -0.013,10.345 0.246,15.505 0.36,7.108 4.482,11.403 10.931,13.814 10.562,3.947 25.1,-2.935 23.564,-16.298 -0.804,-6.99 -0.142,-14.148 -0.142,-21.362 20.49,3.5 41.565,24.879 43.064,42.663 -6.299,0.844 -13.087,0.491 -18.753,2.842 -6.584,2.731 -9.298,9.485 -8.258,16.658 0.554,3.823 2.037,7.92 4.309,11.002 5.257,7.13 13.681,4.765 20.99,5.445 -2.033,14.235 -22.554,35.278 -41.354,37.474 0,-7.201 -0.146,-14.347 0.047,-21.485 C 35.241,86.986 32.553,83.115 28.09,80.287 16.925,73.212 0.056,79.538 0.482,94.515 0.648,100.326 0.51,106.146 0.51,112.187 -17.212,107.849 -38.035,87.247 -39.21,59.76 -40.376,32.494 -23.978,7.307 0,0" /></g><g
           transform="translate(1019.9404,605.6674)"
           id="g68"><path
             id="path70"
             style="fill:#009fe8;fill-opacity:1;fill-rule:nonzero;stroke:none"
             d="m 0,0 c -23.978,7.307 -40.376,32.494 -39.21,59.76 1.175,27.487 21.998,48.089 39.72,52.427 0,-6.041 0.138,-11.861 -0.028,-17.672 C 0.056,79.538 16.925,73.212 28.09,80.287 c 4.463,2.828 7.151,6.699 6.999,12.34 -0.193,7.138 -0.047,14.284 -0.047,21.485 18.8,-2.196 39.321,-23.239 41.354,-37.474 -7.309,-0.68 -15.733,1.685 -20.99,-5.445 -2.272,-3.082 -3.755,-7.179 -4.309,-11.002 -1.04,-7.173 1.674,-13.927 8.258,-16.658 5.666,-2.351 12.454,-1.998 18.753,-2.842 C 76.609,22.907 55.534,1.528 35.044,-1.972 35.044,5.242 34.382,12.4 35.186,19.39 36.722,32.753 22.184,39.635 11.622,35.688 5.173,33.277 1.051,28.982 0.691,21.874 0.432,16.714 0.557,11.537 0.445,6.369 0.403,4.418 0.179,2.472 0,0" /></g></g></g><g
       id="g72"><g
         clip-path="url(#clipPath78)"
         id="g74"><g
           transform="translate(53.4771,56.4994)"
           id="g80"><path
             id="path82"
             style="fill:none;stroke:#231815;stroke-width:10;stroke-linecap:butt;stroke-linejoin:miter;stroke-miterlimit:10;stroke-dasharray:none;stroke-opacity:1"
             d="M 0,0 H 776.028" /></g><g
           transform="translate(49.6055,56.4994)"
           id="g84"><path
             id="path86"
             style="fill:none;stroke:#231815;stroke-width:10;stroke-linecap:butt;stroke-linejoin:miter;stroke-miterlimit:10;stroke-dasharray:none;stroke-opacity:1"
             d="M 0,0 3.872,747.914" /></g><g
           transform="translate(185.8384,566.3964)"
           id="g88"><path
             id="path90"
             style="fill:#f7b52c;fill-opacity:1;fill-rule:nonzero;stroke:none"
             d="m 0,0 c -40.863,-7.854 -73.046,-58.605 -68.017,-105.788 5.368,-50.356 49.368,-88.75 100.082,-88.034 53.676,0.757 87.385,43.15 92.465,71.027 h -6.654 c -36.959,0 -73.92,0.114 -110.878,-0.119 -5.667,-0.036 -7.156,1.678 -7.119,7.242 C 0.116,-79.454 0,-43.233 0,-7.012 Z" /></g><g
           transform="translate(754.3296,612.912)"
           id="g92"><path
             id="path94"
             style="fill:#f7b52c;fill-opacity:1;fill-rule:nonzero;stroke:none"
             d="M 0,0 C 18.894,8.783 34.576,35.092 29.052,63.441 23.381,92.546 -2.293,112.557 -32.547,111.619 -61.506,110.72 -85.411,88.885 -89.675,59.437 -93.027,36.289 -78.36,6.252 -60.592,0.668 c 0,2.862 -0.002,5.595 0,8.328 0.005,11.454 -0.064,22.908 0.054,34.36 0.047,4.53 2.168,7.852 6.903,8.696 4.324,0.77 7.147,-1.563 8.605,-5.339 0.702,-1.816 0.675,-3.979 0.682,-5.985 0.053,-14.409 0.119,-28.82 -0.031,-43.228 -0.038,-3.65 0.993,-5.608 4.893,-5.591 6.038,0.027 12.079,0.012 18.113,-0.167 4.66,-0.139 5.249,2.448 5.207,6.341 -0.158,14.776 -0.127,29.557 -0.015,44.334 0.04,5.174 3.572,9.095 7.773,9.197 3.869,0.094 7.575,-3.535 8.261,-8.316 0.26,-1.814 0.141,-3.687 0.142,-5.533 C 0.005,25.404 0,13.042 0,0" /></g><g
           transform="translate(523.2705,665.3705)"
           id="g96"><path
             id="path98"
             style="fill:#f7b52c;fill-opacity:1;fill-rule:nonzero;stroke:none"
             d="m 0,0 c -2.893,-22.044 15.101,-56.402 52.123,-61.092 30.238,-3.83 62.973,17.402 66.947,53.853 2.994,27.454 -14.143,59.308 -49.1,65.656 C 40.648,63.74 7.457,43.767 3.554,18.909 c 2.273,0 4.432,0.001 6.592,0 15.697,-0.007 31.396,0.124 47.091,-0.067 11.251,-0.136 19.457,-6.708 20.777,-16.101 1.523,-10.831 -5.122,-20.35 -15.739,-22.545 -10.019,-2.071 -19.984,4.815 -22.834,15.42 -0.45,1.676 -2.425,4.156 -3.753,4.193 C 23.897,0.138 12.094,0 0,0" /></g><g
           transform="translate(276.5107,665.4095)"
           id="g100"><path
             id="path102"
             style="fill:#f7b52c;fill-opacity:1;fill-rule:nonzero;stroke:none"
             d="m 0,0 c -8.33,0 -18.097,0 -27.864,0 -10.084,0 -10.084,0 -8.998,-9.859 3.06,-27.786 28.846,-51.196 56.928,-51.683 39.451,-0.683 68.086,32.854 61.27,71.758 -4.363,24.903 -25.919,45.605 -49.74,48.479 -32.322,3.9 -54.755,-14.094 -63.986,-35.282 -0.468,-1.075 -0.579,-2.305 -1.029,-4.182 12.587,0 24.559,0.094 36.528,-0.035 C 10.481,19.117 17.906,19.17 25.206,18.31 34,17.273 40.058,10.432 41.511,1.222 42.622,-5.825 37.907,-14.199 30.784,-17.831 23.024,-21.786 14.266,-20.823 8.48,-14.315 5.221,-10.649 3.333,-5.765 0,0" /></g><g
           transform="translate(420.9961,608.1884)"
           id="g104"><path
             id="path106"
             style="fill:#f7b52c;fill-opacity:1;fill-rule:nonzero;stroke:none"
             d="m 0,0 c 0.179,2.472 0.403,4.418 0.445,6.369 0.112,5.168 -0.013,10.345 0.247,15.505 0.359,7.108 4.481,11.403 10.93,13.814 10.562,3.947 25.1,-2.935 23.564,-16.298 -0.804,-6.99 -0.142,-14.148 -0.142,-21.362 20.491,3.499 41.565,24.879 43.064,42.663 -6.299,0.844 -13.087,0.491 -18.752,2.842 -6.584,2.731 -9.299,9.485 -8.259,16.658 0.554,3.823 2.036,7.92 4.309,11.002 5.257,7.129 13.681,4.765 20.991,5.445 -2.034,14.235 -22.555,35.278 -41.355,37.474 0,-7.201 -0.146,-14.347 0.047,-21.485 C 35.242,86.986 32.553,83.115 28.09,80.287 16.925,73.212 0.056,79.538 0.483,94.515 0.648,100.326 0.51,106.146 0.51,112.187 -17.212,107.849 -38.035,87.247 -39.209,59.76 -40.375,32.494 -23.977,7.307 0,0" /></g><g
           transform="translate(189.6836,614.3241)"
           id="g108"><path
             id="path110"
             style="fill:#f7b52c;fill-opacity:1;fill-rule:nonzero;stroke:none"
             d="m 0,0 c 20.91,10.511 32.324,41.124 25.365,66.061 -7.888,28.27 -33.145,46.101 -62.425,44.071 -27.683,-1.919 -51.476,-23.709 -54.796,-50.184 -3.168,-25.265 9.573,-53.774 27.017,-59.633 0,12.11 -0.174,24.083 0.05,36.049 0.206,10.967 3.451,21.016 10.22,29.811 11.379,14.786 29.237,15.783 42.018,2.217 C -3.429,58.708 -0.361,46.693 -0.055,33.85 0.209,22.796 0,11.73 0,0" /></g><g
           transform="translate(685.4062,499.514)"
           id="g112"><path
             id="path114"
             style="fill:#f7b52c;fill-opacity:1;fill-rule:nonzero;stroke:none"
             d="m 0,0 c -5.148,-7.861 -12.762,-12.028 -21.866,-13.648 -2.741,-0.488 -5.264,-0.575 -5.243,3.443 0.1,19.012 0.13,38.023 0.206,57.034 10e-4,0.335 0.259,0.669 0.755,1.871 C -14.366,48.332 -5.081,43.429 0.91,33.38 7.538,22.261 7.128,10.884 0,0 m -2.609,-90.296 c -5.135,-7.57 -12.628,-11.65 -21.551,-13.191 -2.798,-0.483 -5.199,-0.44 -5.174,3.526 0.116,19 0.144,38 0.224,57 10e-4,0.332 0.268,0.664 0.772,1.838 11.996,-0.417 21.299,-5.485 27.275,-15.851 6.511,-11.292 5.72,-22.611 -1.546,-33.322 M -25.685,72.026 c -54.785,-0.061 -99.388,-44.412 -99.431,-99.247 -0.044,-55.229 44.508,-100.493 99.203,-100.147 59.442,0.375 100.163,49.861 98.753,99.654 1.495,51.475 -41.396,99.804 -98.525,99.74" /></g><g
           transform="translate(459.0864,473.5131)"
           id="g116"><path
             id="path118"
             style="fill:#f7b52c;fill-opacity:1;fill-rule:nonzero;stroke:none"
             d="m 0,0 c -8.129,0.127 -16.262,0.037 -24.394,0.041 -8.131,0.004 -16.265,0.109 -24.394,-0.04 -4.02,-0.073 -5.162,1.495 -4.476,5.389 2.629,14.913 15.216,26.256 29.325,26.196 C -9.83,31.528 2.131,20.615 5.053,5.787 6.023,0.862 4.184,-0.065 0,0 m 74.757,7.992 c -4.285,52.64 -46.053,90.19 -95.071,91.508 -53.662,1.442 -97.454,-37.19 -102.36,-89.659 -5.081,-54.332 31.764,-93.387 66.206,-103.386 0,7.397 0.17,14.506 -0.062,21.603 -0.146,4.469 1.345,6.118 6.032,6.048 16.815,-0.251 33.64,-0.318 50.451,0.031 5.376,0.111 6.671,-1.929 6.497,-6.738 -0.258,-7.128 -0.067,-14.271 -0.067,-21.607 32.989,8.401 72.933,46.196 68.374,102.2" /></g><g
           transform="translate(90.3657,804.7758)"
           id="g120"><path
             id="path122"
             style="fill:#009fe8;fill-opacity:1;fill-rule:nonzero;stroke:none"
             d="m 0,0 c 0,-20.373 -16.516,-36.889 -36.889,-36.889 -20.373,0 -36.888,16.516 -36.888,36.889 0,20.374 16.515,36.889 36.888,36.889 C -16.516,36.889 0,20.374 0,0" /></g><g
           transform="translate(86.4941,56.4994)"
           id="g124"><path
             id="path126"
             style="fill:#f7b52c;fill-opacity:1;fill-rule:nonzero;stroke:none"
             d="m 0,0 c 0,-20.373 -16.516,-36.889 -36.889,-36.889 -20.373,0 -36.888,16.516 -36.888,36.889 0,20.373 16.515,36.889 36.888,36.889 C -16.516,36.889 0,20.373 0,0" /></g><g
           transform="translate(866.3936,56.4994)"
           id="g128"><path
             id="path130"
             style="fill:#8dc21f;fill-opacity:1;fill-rule:nonzero;stroke:none"
             d="m 0,0 c 0,-20.373 -16.516,-36.889 -36.889,-36.889 -20.373,0 -36.888,16.516 -36.888,36.889 0,20.373 16.515,36.889 36.888,36.889 C -16.516,36.889 0,20.373 0,0" /></g><g
           transform="translate(869.8252,804.413)"
           id="g132"><path
             id="path134"
             style="fill:#8dc21f;fill-opacity:1;fill-rule:nonzero;stroke:none"
             d="m 0,0 c 0,-20.373 -16.517,-36.889 -36.889,-36.889 -20.373,0 -36.889,16.516 -36.889,36.889 0,20.373 16.516,36.889 36.889,36.889 C -16.517,36.889 0,20.373 0,0" /></g><g
           transform="translate(1690.0439,56.4994)"
           id="g136"><path
             id="path138"
             style="fill:#009fe8;fill-opacity:1;fill-rule:nonzero;stroke:none"
             d="m 0,0 c 0,-20.373 -16.516,-36.889 -36.889,-36.889 -20.373,0 -36.888,16.516 -36.888,36.889 0,20.373 16.515,36.889 36.888,36.889 C -16.516,36.889 0,20.373 0,0" /></g><g
           transform="translate(129.936,199.1351)"
           id="g140"><path
             id="path142"
             style="fill:#f7b52c;fill-opacity:1;fill-rule:nonzero;stroke:none"
             d="m 0,0 c -3.793,0 -5.881,2.089 -5.881,5.882 v 61.415 h 38.152 c 3.519,0 5.882,-2.364 5.882,-5.882 0,-3.518 -2.363,-5.881 -5.882,-5.881 H 5.881 v -9.042 h 18.364 c 3.518,0 5.881,-2.363 5.881,-5.882 0,-3.517 -2.363,-5.881 -5.881,-5.881 H 5.881 V 5.882 C 5.881,2.089 3.792,0 0,0" /></g><g
           transform="translate(125.8403,264.6459)"
           id="g144"><path
             id="path146"
             style="fill:#f7b52c;fill-opacity:1;fill-rule:nonzero;stroke:none"
             d="m 0,0 h 36.367 c 2.13,0 4.096,-1.146 4.096,-4.096 0,-2.949 -1.966,-4.094 -4.096,-4.094 H 8.191 V -20.805 H 28.34 c 2.13,0 4.096,-1.146 4.096,-4.095 0,-2.949 -1.966,-4.095 -4.096,-4.095 H 8.191 v -30.634 c 0,-2.621 -1.147,-4.096 -4.095,-4.096 -2.949,0 -4.096,1.475 -4.096,4.096 z" /></g><g
           transform="translate(220.4409,199.1351)"
           id="g148"><path
             id="path150"
             style="fill:#f7b52c;fill-opacity:1;fill-rule:nonzero;stroke:none"
             d="M 0,0 C -2.305,0 -5,0.985 -5.597,5.361 L -9.343,2.913 C -11.58,1.47 -14.245,0 -17.119,0 h -5.815 c -3.058,0 -5.819,1.075 -8.441,3.287 -3.932,3.383 -4.068,7.203 -4.212,11.247 l -0.025,0.699 -0.82,24.745 c -0.058,2.024 0.083,4.551 1.699,6.213 0.986,1.015 2.337,1.53 4.018,1.53 5.404,0 5.577,-5.37 5.634,-7.134 l 0.824,-24.268 c 0.062,-1.354 0.154,-3.4 0.58,-4.146 0.163,-0.247 1.257,-0.737 3.036,-0.737 h 2.621 c 0.546,0 1.026,0.142 1.467,0.436 l 10.754,6.788 v 21.868 c 0,5.945 3.109,7.193 5.717,7.193 2.609,0 5.718,-1.248 5.718,-7.193 V 7.602 L 5.639,7.251 C 5.655,5.736 5.682,3.202 3.988,1.49 3.01,0.502 1.668,0 0,0" /></g><g
           transform="translate(224.2905,206.7367)"
           id="g152"><path
             id="path154"
             style="fill:#f7b52c;fill-opacity:1;fill-rule:nonzero;stroke:none"
             d="m 0,0 c 0,-1.802 0.328,-5.815 -3.85,-5.815 -3.358,0 -3.931,2.785 -3.931,5.487 v 1.31 l -6.389,-4.176 c -2.539,-1.638 -4.669,-2.621 -6.798,-2.621 h -5.816 c -2.212,0 -4.669,0.655 -7.29,2.866 -3.522,3.031 -3.44,6.389 -3.603,10.648 l -0.82,24.737 c -0.082,2.867 0.328,5.897 3.932,5.897 3.358,0 3.768,-2.867 3.85,-5.406 l 0.819,-24.163 c 0.082,-1.801 0.164,-3.931 0.819,-5.078 0.655,-1.147 2.702,-1.638 4.587,-1.638 h 2.621 c 0.901,0 1.72,0.245 2.457,0.737 l 11.549,7.289 v 22.853 c 0,2.703 0.573,5.406 3.932,5.406 C -0.573,38.333 0,35.63 0,32.927 Z" /></g><g
           transform="translate(265.7329,199.1351)"
           id="g156"><path
             id="path158"
             style="fill:#f7b52c;fill-opacity:1;fill-rule:nonzero;stroke:none"
             d="m 0,0 c -5,0 -8.645,1.433 -11.472,4.51 -3.354,3.716 -3.346,7.528 -3.339,11.564 l 10e-4,20.211 h -0.753 c -6.491,0 -7.191,3.999 -7.191,5.718 0,2.608 1.247,5.718 7.191,5.718 h 0.753 v 6.241 c 0,5.944 3.109,7.191 5.718,7.191 2.608,0 5.717,-1.247 5.717,-7.191 V 47.721 H 8.027 c 5.944,0 7.192,-3.11 7.192,-5.718 0,-1.719 -0.701,-5.718 -7.192,-5.718 H -3.375 V 16.23 C -3.377,14.3 -3.379,12.632 -2.807,12.059 -2.399,11.65 -1.4,11.436 0.082,11.436 h 4.013 c 2.98,0 3.26,0.157 3.759,2.097 0.719,2.759 2.94,4.537 5.661,4.537 3.198,0 5.799,-2.565 5.799,-5.717 0,-2.747 -1.619,-5.917 -3.123,-7.704 C 12.787,0.564 8.326,0 4.013,0 Z" /></g><g
           transform="translate(260.5723,215.7464)"
           id="g160"><path
             id="path162"
             style="fill:#f7b52c;fill-opacity:1;fill-rule:nonzero;stroke:none"
             d="m 0,0 c 0,-4.423 -0.164,-6.962 5.242,-6.962 h 4.014 c 3.194,0 4.669,0.245 5.488,3.441 0.491,1.883 1.965,3.194 3.931,3.194 2.212,0 4.014,-1.72 4.014,-3.932 0,-2.212 -1.393,-4.997 -2.703,-6.553 -2.867,-3.44 -6.635,-4.013 -10.812,-4.013 H 5.161 c -3.932,0 -7.372,0.9 -10.157,3.931 -3.031,3.359 -2.867,6.717 -2.867,10.976 V 21.46 h -2.539 c -2.293,0 -5.406,0.491 -5.406,3.932 0,3.358 2.785,3.931 5.406,3.931 h 2.539 v 8.028 c 0,2.703 0.573,5.405 3.931,5.405 3.359,0 3.932,-2.702 3.932,-5.405 v -8.028 h 13.188 c 2.621,0 5.405,-0.573 5.405,-3.931 0,-3.441 -3.112,-3.932 -5.405,-3.932 H 0 Z" /></g><g
           transform="translate(338.3818,199.1351)"
           id="g164"><path
             id="path166"
             style="fill:#f7b52c;fill-opacity:1;fill-rule:nonzero;stroke:none"
             d="M 0,0 C -2.305,0 -5,0.985 -5.597,5.361 L -9.343,2.913 C -11.58,1.47 -14.245,0 -17.119,0 h -5.815 c -3.059,0 -5.819,1.075 -8.441,3.287 -3.932,3.383 -4.068,7.203 -4.212,11.247 l -0.026,0.699 -0.819,24.745 c -0.058,2.024 0.083,4.551 1.699,6.213 0.985,1.015 2.337,1.53 4.017,1.53 5.405,0 5.578,-5.37 5.635,-7.134 l 0.824,-24.268 c 0.061,-1.354 0.154,-3.4 0.58,-4.146 0.163,-0.247 1.257,-0.737 3.036,-0.737 h 2.621 c 0.546,0 1.025,0.142 1.467,0.436 l 10.754,6.788 v 21.868 c 0,5.945 3.109,7.193 5.717,7.193 2.608,0 5.718,-1.248 5.718,-7.193 V 7.602 L 5.638,7.251 C 5.655,5.736 5.682,3.202 3.988,1.49 3.01,0.502 1.668,0 0,0" /></g><g
           transform="translate(342.2314,206.7367)"
           id="g168"><path
             id="path170"
             style="fill:#f7b52c;fill-opacity:1;fill-rule:nonzero;stroke:none"
             d="m 0,0 c 0,-1.802 0.328,-5.815 -3.85,-5.815 -3.358,0 -3.931,2.785 -3.931,5.487 v 1.31 l -6.389,-4.176 c -2.539,-1.638 -4.669,-2.621 -6.798,-2.621 h -5.816 c -2.212,0 -4.669,0.655 -7.29,2.866 -3.522,3.031 -3.44,6.389 -3.604,10.648 l -0.819,24.737 c -0.082,2.867 0.328,5.897 3.932,5.897 3.358,0 3.768,-2.867 3.85,-5.406 l 0.819,-24.163 c 0.082,-1.801 0.164,-3.931 0.819,-5.078 0.655,-1.147 2.702,-1.638 4.587,-1.638 h 2.62 c 0.902,0 1.721,0.245 2.458,0.737 l 11.549,7.289 v 22.853 c 0,2.703 0.573,5.406 3.931,5.406 C -0.573,38.333 0,35.63 0,32.927 Z" /></g><g
           transform="translate(366.6367,199.1351)"
           id="g172"><path
             id="path174"
             style="fill:#f7b52c;fill-opacity:1;fill-rule:nonzero;stroke:none"
             d="m 0,0 c -2.608,0 -5.717,1.248 -5.717,7.192 v 32.927 c 0,2.079 0,7.602 5.717,7.602 3.417,0 5.521,-2.395 5.705,-6.441 l 3.232,2.672 c 2.406,1.961 5.044,3.769 8.1,3.769 h 6.307 c 3.534,0 6.55,-1.224 8.962,-3.635 2.836,-2.836 4.045,-5.884 4.045,-10.191 0,-4.827 -1.896,-7.275 -5.636,-7.275 -3.523,0 -5.799,2.599 -5.799,6.619 0,1.279 -0.023,1.754 -0.486,2.402 -0.424,0.6 -1.581,0.644 -3.298,0.644 h -2.293 c -0.778,0 -1.406,-0.331 -2.796,-1.476 L 5.717,26.256 V 7.192 C 5.717,1.248 2.608,0 0,0" /></g><g
           transform="translate(362.7051,239.2543)"
           id="g176"><path
             id="path178"
             style="fill:#f7b52c;fill-opacity:1;fill-rule:nonzero;stroke:none"
             d="m 0,0 c 0,2.867 0.328,5.815 3.932,5.815 3.112,0 3.931,-2.621 3.931,-5.242 v -3.194 l 6.143,5.078 c 2.212,1.802 4.505,3.358 6.962,3.358 h 6.307 c 3.031,0 5.57,-0.982 7.7,-3.112 2.621,-2.621 3.522,-5.324 3.522,-8.928 0,-2.703 -0.492,-5.488 -3.85,-5.488 -2.867,0 -4.013,2.293 -4.013,4.833 0,1.311 0,2.293 -0.82,3.44 -0.982,1.392 -2.866,1.392 -4.75,1.392 h -2.293 c -1.475,0 -2.54,-0.737 -3.932,-1.884 L 7.863,-13.023 v -19.904 c 0,-2.703 -0.573,-5.406 -3.931,-5.406 -3.359,0 -3.932,2.703 -3.932,5.406 z" /></g><g
           transform="translate(450.5229,226.9525)"
           id="g180"><path
             id="path182"
             style="fill:#f7b52c;fill-opacity:1;fill-rule:nonzero;stroke:none"
             d="M 0,0 V 3.266 C 0.006,4.615 -0.042,4.999 -0.408,5.339 L -3.396,7.92 c -0.598,0.548 -2,0.548 -2.6,0.548 h -6.634 c -1.451,0 -2.184,-0.025 -3.002,-0.586 l -2.663,-1.939 c -0.708,-0.531 -0.904,-0.677 -0.904,-2.16 V 0 Z m -14.432,-27.817 c -3.387,0 -5.253,0 -8.214,2.565 l -3.366,2.957 c -3.588,3.21 -4.621,5.492 -4.621,10.188 V 3.046 c 0,4.522 0.714,7.579 4.479,10.781 l 2.782,2.373 c 4.075,3.53 6.285,3.703 9.841,3.703 h 7.208 c 4.077,0 6.34,-0.454 9.807,-3.265 l 3.181,-2.529 c 4.405,-3.504 4.77,-7.504 4.77,-11.636 v -6.307 c 0,-5.042 -1.112,-7.602 -7.192,-7.602 h -23.442 v -0.835 c 0.021,-0.172 0.292,-0.698 0.624,-1.029 l 2.016,-2.182 c 0.514,-0.555 1.352,-0.9 3.929,-0.9 H 4.243 c 5.945,0 7.192,-3.109 7.192,-5.718 0,-1.718 -0.701,-5.717 -7.192,-5.717 z" /></g><g
           transform="translate(429.5386,225.1664)"
           id="g184"><path
             id="path186"
             style="fill:#f7b52c;fill-opacity:1;fill-rule:nonzero;stroke:none"
             d="m 0,0 h 22.771 v 4.75 c 0,1.475 0.081,2.703 -0.983,3.687 l -3.031,2.621 c -0.983,0.9 -2.539,0.982 -3.768,0.982 H 8.354 c -1.474,0 -2.703,0 -4.013,-0.9 L 1.638,9.174 C 0.655,8.437 0,7.863 0,5.569 Z m 6.553,-24.245 c -3.277,0 -4.587,0 -7.044,2.13 l -3.359,2.948 c -3.112,2.785 -4.013,4.587 -4.013,8.846 V 4.832 c 0,4.178 0.573,6.635 3.85,9.42 l 2.784,2.375 c 3.687,3.194 5.488,3.276 8.683,3.276 h 7.208 c 3.849,0 5.651,-0.409 8.682,-2.867 l 3.194,-2.539 C 30.143,11.631 30.633,8.6 30.633,4.259 v -6.307 c 0,-4.505 -0.737,-5.815 -5.405,-5.815 H 0 v -2.621 c 0,-0.738 0.573,-1.721 1.147,-2.293 l 1.966,-2.13 c 1.064,-1.148 2.62,-1.475 5.241,-1.475 h 16.874 c 2.621,0 5.405,-0.573 5.405,-3.931 0,-3.441 -3.112,-3.932 -5.405,-3.932 z" /></g><g
           transform="translate(551.9028,199.1351)"
           id="g188"><path
             id="path190"
             style="fill:#8dc21f;fill-opacity:1;fill-rule:nonzero;stroke:none"
             d="m 0,0 c -4.982,0 -8.524,1.471 -11.485,4.771 -3.294,3.694 -3.57,7.429 -3.57,10.939 v 45.705 c 0,3.793 2.089,5.882 5.881,5.882 3.793,0 5.882,-2.089 5.882,-5.882 V 15.71 c 0,-3.584 0.624,-3.947 3.292,-3.947 h 13.925 c 2.668,0 3.292,0.363 3.292,3.947 v 45.705 c 0,3.793 2.089,5.882 5.882,5.882 3.792,0 5.88,-2.089 5.88,-5.882 V 15.71 C 28.979,12.2 28.704,8.465 25.414,4.774 22.45,1.471 18.907,0 13.925,0 Z" /></g><g
           transform="translate(551.9028,200.9212)"
           id="g192"><path
             id="path194"
             style="fill:#8dc21f;fill-opacity:1;fill-rule:nonzero;stroke:none"
             d="m 0,0 c -4.095,0 -7.29,0.983 -10.156,4.177 -2.703,3.031 -3.113,5.98 -3.113,9.747 v 45.705 c 0,2.621 1.147,4.096 4.095,4.096 2.949,0 4.096,-1.475 4.096,-4.096 V 13.924 C -5.078,9.338 -3.686,8.19 0,8.19 h 13.925 c 3.685,0 5.078,1.148 5.078,5.734 v 45.705 c 0,2.621 1.146,4.096 4.096,4.096 2.948,0 4.095,-1.475 4.095,-4.096 V 13.924 c 0,-3.767 -0.41,-6.716 -3.113,-9.747 C 21.215,0.983 18.02,0 13.925,0 Z" /></g><g
           transform="translate(626.166,199.0531)"
           id="g196"><path
             id="path198"
             style="fill:#8dc21f;fill-opacity:1;fill-rule:nonzero;stroke:none"
             d="M 0,0 -18.584,42.725 V 5.964 c 0,-3.793 -2.089,-5.882 -5.882,-5.882 -3.793,0 -5.881,2.089 -5.881,5.882 v 61.415 h 13.774 L 1.939,24.323 2.006,61.419 c 0,3.789 2.089,5.878 5.882,5.878 3.793,0 5.881,-2.089 5.881,-5.882 V 0 Z" /></g><g
           transform="translate(629.958,260.4681)"
           id="g200"><path
             id="path202"
             style="fill:#8dc21f;fill-opacity:1;fill-rule:nonzero;stroke:none"
             d="M 0,0 C 0,2.621 1.147,4.096 4.096,4.096 7.044,4.096 8.191,2.621 8.191,0 V -59.629 H -2.621 l -21.378,49.146 v 0.081 h -0.163 v -45.049 c 0,-2.621 -1.147,-4.096 -4.096,-4.096 -2.949,0 -4.096,1.475 -4.096,4.096 V 4.178 h 10.813 l 21.377,-49.719 h -0.082 0.164 z" /></g><g
           transform="translate(672.7114,251.7201)"
           id="g204"><path
             id="path206"
             style="fill:#8dc21f;fill-opacity:1;fill-rule:nonzero;stroke:none"
             d="M 0,0 C -3.478,0 -5.472,1.994 -5.472,5.472 V 9.24 c 0,3.477 1.994,5.472 5.472,5.472 h 4.505 c 3.477,0 5.472,-1.995 5.472,-5.472 V 5.472 C 9.977,1.994 7.982,0 4.505,0 Z m -5.897,-52.585 c -6.491,0 -7.192,3.999 -7.192,5.718 0,2.608 1.248,5.718 7.192,5.718 h 4.439 V -16.3 h -4.439 c -6.491,0 -7.192,3.999 -7.192,5.718 0,2.608 1.248,5.718 7.192,5.718 h 8.272 c 6.39,0 7.602,-2.557 7.602,-7.274 v -29.011 h 4.111 c 5.944,0 7.191,-3.11 7.191,-5.718 0,-1.719 -0.7,-5.718 -7.191,-5.718 z" /></g><g
           transform="translate(669.0254,260.9603)"
           id="g208"><path
             id="path210"
             style="fill:#8dc21f;fill-opacity:1;fill-rule:nonzero;stroke:none"
             d="m 0,0 c 0,2.784 1.557,3.686 3.686,3.686 h 4.505 c 2.13,0 3.685,-0.902 3.685,-3.686 v -3.769 c 0,-2.784 -1.555,-3.685 -3.685,-3.685 H 3.686 C 1.557,-7.454 0,-6.553 0,-3.769 Z m 11.876,-52.176 h 5.898 c 2.621,0 5.406,-0.573 5.406,-3.931 0,-3.441 -3.112,-3.932 -5.406,-3.932 H -2.211 c -2.294,0 -5.406,0.491 -5.406,3.932 0,3.358 2.784,3.931 5.406,3.931 h 6.224 v 28.422 h -6.224 c -2.294,0 -5.406,0.491 -5.406,3.932 0,3.358 2.784,3.931 5.406,3.931 h 8.272 c 4.505,0 5.815,-0.819 5.815,-5.487 z" /></g><g
           transform="translate(733.2383,199.1351)"
           id="g212"><path
             id="path214"
             style="fill:#8dc21f;fill-opacity:1;fill-rule:nonzero;stroke:none"
             d="m 0,0 c -3.05,0 -4.671,3.62 -5.64,5.782 l -11.843,26.003 c -0.565,1.21 -1.012,2.166 -1.012,3.829 v 5.57 c 0,3.971 2.212,6.537 5.635,6.537 3.849,0 5.8,-2.558 5.8,-7.602 v -3.641 l 9.599,-22.03 9.599,22.03 v 3.641 c 0,5.044 1.952,7.602 5.8,7.602 3.423,0 5.635,-2.566 5.635,-6.537 v -5.57 c 0,-1.663 -0.447,-2.619 -1.012,-3.829 L 10.719,5.782 C 9.75,3.62 8.128,0 5.079,0 Z" /></g><g
           transform="translate(747.1626,235.2406)"
           id="g216"><path
             id="path218"
             style="fill:#8dc21f;fill-opacity:1;fill-rule:nonzero;stroke:none"
             d="m 0,0 v 4.014 c 0,2.785 0.491,5.815 4.014,5.815 2.784,0 3.849,-2.212 3.849,-4.751 v -5.569 c 0,-1.311 -0.327,-1.966 -0.901,-3.195 L -4.75,-29.404 c -0.738,-1.639 -2.13,-4.915 -4.096,-4.915 h -5.078 c -1.966,0 -3.359,3.276 -4.096,4.915 l -11.712,25.718 c -0.574,1.229 -0.901,1.884 -0.901,3.195 v 5.569 c 0,2.539 1.064,4.751 3.849,4.751 3.522,0 4.014,-3.03 4.014,-5.815 V 0 l 11.385,-26.129 z" /></g><g
           transform="translate(804.3472,226.9525)"
           id="g220"><path
             id="path222"
             style="fill:#8dc21f;fill-opacity:1;fill-rule:nonzero;stroke:none"
             d="M 0,0 0.001,3.266 C 0.006,4.615 -0.042,4.999 -0.408,5.339 L -3.396,7.92 c -0.598,0.548 -2,0.548 -2.6,0.548 h -6.634 c -1.451,0 -2.184,-0.025 -3.002,-0.586 l -2.663,-1.939 c -0.707,-0.531 -0.903,-0.677 -0.903,-2.16 V 0 Z m -14.431,-27.817 c -3.387,0 -5.253,0 -8.214,2.565 l -3.367,2.957 c -3.587,3.21 -4.621,5.492 -4.621,10.188 V 3.046 c 0,4.522 0.714,7.58 4.479,10.781 l 2.782,2.373 c 4.074,3.53 6.285,3.703 9.841,3.703 h 7.208 c 4.077,0 6.341,-0.454 9.807,-3.265 l 3.181,-2.529 c 4.405,-3.504 4.77,-7.504 4.77,-11.636 v -6.307 c 0,-5.042 -1.112,-7.602 -7.192,-7.602 h -23.441 v -0.835 c 0.02,-0.172 0.291,-0.699 0.622,-1.029 l 2.016,-2.182 c 0.515,-0.554 1.353,-0.9 3.93,-0.9 H 4.243 c 5.945,0 7.192,-3.109 7.192,-5.718 0,-1.718 -0.701,-5.717 -7.192,-5.717 z" /></g><g
           transform="translate(783.3633,225.1664)"
           id="g224"><path
             id="path226"
             style="fill:#8dc21f;fill-opacity:1;fill-rule:nonzero;stroke:none"
             d="m 0,0 h 22.77 v 4.75 c 0,1.475 0.082,2.703 -0.983,3.687 l -3.031,2.621 c -0.982,0.9 -2.539,0.982 -3.768,0.982 H 8.354 c -1.474,0 -2.703,0 -4.013,-0.9 L 1.638,9.174 C 0.655,8.437 0,7.863 0,5.569 Z m 6.553,-24.245 c -3.277,0 -4.587,0 -7.045,2.13 l -3.358,2.948 c -3.112,2.785 -4.013,4.587 -4.013,8.846 V 4.832 c 0,4.178 0.572,6.635 3.849,9.42 l 2.785,2.375 c 3.686,3.194 5.488,3.276 8.682,3.276 h 7.208 c 3.85,0 5.652,-0.409 8.682,-2.867 l 3.195,-2.539 C 30.142,11.631 30.633,8.6 30.633,4.259 v -6.307 c 0,-4.505 -0.737,-5.815 -5.406,-5.815 H 0 v -2.621 c 0,-0.738 0.573,-1.721 1.146,-2.293 l 1.966,-2.13 c 1.065,-1.148 2.621,-1.475 5.242,-1.475 h 16.873 c 2.621,0 5.406,-0.573 5.406,-3.931 0,-3.441 -3.112,-3.932 -5.406,-3.932 z" /></g><g
           transform="translate(838.4023,199.1351)"
           id="g228"><path
             id="path230"
             style="fill:#8dc21f;fill-opacity:1;fill-rule:nonzero;stroke:none"
             d="m 0,0 c -2.608,0 -5.718,1.248 -5.718,7.192 v 32.927 c 0,2.079 0,7.602 5.718,7.602 3.418,0 5.52,-2.395 5.704,-6.441 l 3.232,2.672 c 2.406,1.961 5.044,3.769 8.101,3.769 h 6.307 c 3.534,0 6.55,-1.224 8.962,-3.635 2.836,-2.836 4.045,-5.884 4.045,-10.191 0,-4.827 -1.897,-7.275 -5.635,-7.275 -3.524,0 -5.801,2.599 -5.801,6.619 0,1.279 -0.023,1.754 -0.485,2.402 -0.424,0.6 -1.58,0.644 -3.298,0.644 h -2.294 c -0.777,0 -1.405,-0.331 -2.796,-1.476 L 5.718,26.256 V 7.192 C 5.718,1.248 2.608,0 0,0" /></g><g
           transform="translate(834.4707,239.2543)"
           id="g232"><path
             id="path234"
             style="fill:#8dc21f;fill-opacity:1;fill-rule:nonzero;stroke:none"
             d="m 0,0 c 0,2.867 0.327,5.815 3.932,5.815 3.111,0 3.931,-2.621 3.931,-5.242 v -3.194 l 6.143,5.078 c 2.211,1.802 4.505,3.358 6.963,3.358 h 6.306 c 3.031,0 5.57,-0.982 7.7,-3.112 2.621,-2.621 3.521,-5.324 3.521,-8.928 0,-2.703 -0.491,-5.488 -3.849,-5.488 -2.867,0 -4.014,2.293 -4.014,4.833 0,1.311 0,2.293 -0.819,3.44 -0.982,1.392 -2.867,1.392 -4.751,1.392 H 22.77 c -1.474,0 -2.539,-0.737 -3.932,-1.884 L 7.863,-13.023 v -19.904 c 0,-2.703 -0.573,-5.406 -3.931,-5.406 -3.359,0 -3.932,2.703 -3.932,5.406 z" /></g><g
           transform="translate(908.5947,251.7201)"
           id="g236"><path
             id="path238"
             style="fill:#8dc21f;fill-opacity:1;fill-rule:nonzero;stroke:none"
             d="M 0,0 C -3.478,0 -5.473,1.994 -5.473,5.472 V 9.24 c 0,3.477 1.995,5.472 5.473,5.472 h 4.505 c 3.476,0 5.472,-1.995 5.472,-5.472 V 5.472 C 9.977,1.994 7.981,0 4.505,0 Z m -5.897,-52.585 c -6.492,0 -7.193,3.999 -7.193,5.718 0,2.608 1.248,5.718 7.193,5.718 h 4.438 V -16.3 h -4.438 c -6.492,0 -7.193,3.999 -7.193,5.718 0,2.608 1.248,5.718 7.193,5.718 h 8.272 c 6.39,0 7.602,-2.557 7.602,-7.274 v -29.011 h 4.111 c 5.943,0 7.191,-3.11 7.191,-5.718 0,-1.719 -0.701,-5.718 -7.191,-5.718 z" /></g><g
           transform="translate(904.9082,260.9603)"
           id="g240"><path
             id="path242"
             style="fill:#8dc21f;fill-opacity:1;fill-rule:nonzero;stroke:none"
             d="m 0,0 c 0,2.784 1.557,3.686 3.687,3.686 h 4.504 c 2.129,0 3.686,-0.902 3.686,-3.686 v -3.769 c 0,-2.784 -1.557,-3.685 -3.686,-3.685 H 3.687 C 1.557,-7.454 0,-6.553 0,-3.769 Z m 11.877,-52.176 h 5.897 c 2.622,0 5.406,-0.573 5.406,-3.931 0,-3.441 -3.113,-3.932 -5.406,-3.932 H -2.211 c -2.294,0 -5.406,0.491 -5.406,3.932 0,3.358 2.785,3.931 5.406,3.931 h 6.225 v 28.422 h -6.225 c -2.294,0 -5.406,0.491 -5.406,3.932 0,3.358 2.785,3.931 5.406,3.931 h 8.273 c 4.504,0 5.815,-0.819 5.815,-5.487 z" /></g><g
           transform="translate(965.8447,199.1351)"
           id="g244"><path
             id="path246"
             style="fill:#8dc21f;fill-opacity:1;fill-rule:nonzero;stroke:none"
             d="m 0,0 c -4.264,0 -7.544,0.204 -10.926,2.834 l -0.341,0.263 c -1.668,1.282 -3.952,3.039 -3.952,5.733 0,3.153 2.639,5.718 5.882,5.718 1.732,0 3.113,-0.626 4.347,-1.971 0.943,-1.055 3.07,-1.141 4.99,-1.141 l 11.479,-0.003 c 3.2,0 3.935,0.478 3.935,2.558 0,0.343 -0.395,1.099 -3.049,2.306 l -18.511,8.437 c -3.917,1.773 -7.926,4.493 -7.926,11.207 0,6.826 5.299,11.78 12.597,11.78 h 13.433 c 4.517,0 6.85,-0.296 10.235,-3.117 0.182,-0.151 0.366,-0.299 0.548,-0.445 1.429,-1.143 3.208,-2.566 3.208,-5.35 0,-3.154 -2.602,-5.718 -5.8,-5.718 -2.316,0 -3.661,1.119 -4.67,2.214 -0.74,0.785 -1.434,0.98 -3.521,0.98 L 0,36.285 c -0.171,0 -0.354,0.004 -0.545,0.007 -0.184,0.004 -0.378,0.007 -0.575,0.007 -1.139,0 -1.439,-0.157 -1.501,-0.203 0.005,-0.007 -0.016,-0.081 -0.016,-0.236 0,-0.07 0.008,-0.097 0.008,-0.098 0.111,-0.157 0.811,-0.455 1.04,-0.554 L 18.104,26.265 C 24.151,23.533 26.85,19.596 26.85,13.499 26.85,5.173 21.207,0 12.123,0 Z" /></g><g
           transform="translate(965.8447,237.2064)"
           id="g248"><path
             id="path250"
             style="fill:#8dc21f;fill-opacity:1;fill-rule:nonzero;stroke:none"
             d="m 0,0 c -1.638,0 -4.423,0.328 -4.423,-2.211 0,-1.31 0.983,-1.803 2.13,-2.294 l 19.658,-8.928 c 5.077,-2.294 7.698,-5.488 7.698,-11.139 0,-7.946 -5.405,-11.713 -12.94,-11.713 H 0 c -4.096,0 -6.88,0.164 -9.829,2.457 -1.474,1.147 -3.604,2.621 -3.604,4.587 0,2.212 1.884,3.931 4.096,3.931 1.229,0 2.129,-0.409 3.03,-1.391 1.393,-1.557 3.85,-1.721 6.307,-1.721 h 10.647 c 2.787,0 6.553,-0.245 6.553,4.342 0,1.884 -2.293,3.111 -4.095,3.931 l -18.511,8.437 c -4.341,1.965 -6.88,4.504 -6.88,9.582 0,6.226 4.914,9.993 10.811,9.993 h 13.433 c 4.342,0 6.144,-0.246 9.092,-2.703 1.475,-1.228 3.113,-2.211 3.113,-4.423 0,-2.212 -1.884,-3.931 -4.014,-3.931 -1.473,0 -2.375,0.573 -3.358,1.638 C 15.48,-0.164 14.089,0 11.958,0 Z" /></g><g
           transform="translate(1016.7891,182.4252)"
           id="g252"><path
             id="path254"
             style="fill:#8dc21f;fill-opacity:1;fill-rule:nonzero;stroke:none"
             d="m 0,0 c -6.491,0 -7.192,3.999 -7.192,5.718 0,2.608 1.248,5.718 7.192,5.718 h 4.284 l 4.234,8.765 c -2.157,0.653 -2.861,2.291 -3.596,4.003 -0.124,0.289 -0.257,0.598 -0.405,0.925 l -9.705,21.466 c -1.076,2.399 -2.004,4.471 -2.004,7.122 v 3.521 c 0,3.282 0.992,7.193 5.717,7.193 2.609,0 5.718,-1.248 5.718,-7.193 v -4.117 l 9.637,-21.142 9.56,21.14 v 4.119 c 0,5.945 3.111,7.193 5.718,7.193 2.609,0 5.718,-1.248 5.718,-7.193 v -3.194 c 0,-2.112 -0.189,-3.733 -1.156,-5.764 L 13.909,5.138 C 11.842,0.707 10.218,0 6.061,0 Z" /></g><g
           transform="translate(1042.0156,235.1586)"
           id="g256"><path
             id="path258"
             style="fill:#8dc21f;fill-opacity:1;fill-rule:nonzero;stroke:none"
             d="m 0,0 v 4.505 c 0,2.703 0.574,5.406 3.932,5.406 3.359,0 3.931,-2.703 3.931,-5.406 V 1.311 C 7.863,-0.655 7.7,-1.966 6.881,-3.686 L -12.94,-46.851 c -1.721,-3.686 -2.622,-4.096 -6.226,-4.096 h -6.061 c -2.294,0 -5.406,0.492 -5.406,3.931 0,3.36 2.785,3.932 5.406,3.932 h 5.406 l 5.815,12.041 h -0.409 c -3.276,0 -3.44,1.475 -4.669,4.178 l -9.665,21.378 c -1.064,2.375 -1.884,4.176 -1.884,6.47 v 3.522 c 0,2.703 0.573,5.406 3.932,5.406 3.358,0 3.931,-2.703 3.931,-5.406 V 0 l 10.567,-23.18 h 1.719 z" /></g><g
           transform="translate(1164.708,199.1351)"
           id="g260"><path
             id="path262"
             style="fill:#009fe8;fill-opacity:1;fill-rule:nonzero;stroke:none"
             d="M 0,0 C -3.793,0 -5.882,2.089 -5.882,5.882 V 27.767 H -26.39 V 5.882 C -26.39,2.089 -28.479,0 -32.271,0 c -3.793,0 -5.882,2.089 -5.882,5.882 v 55.533 c 0,3.793 2.089,5.882 5.882,5.882 3.792,0 5.881,-2.089 5.881,-5.882 V 39.53 h 20.508 v 21.885 c 0,3.793 2.089,5.882 5.882,5.882 3.793,0 5.882,-2.089 5.882,-5.882 V 5.882 C 5.882,2.089 3.793,0 0,0" /></g><g
           transform="translate(1136.5322,228.6879)"
           id="g264"><path
             id="path266"
             style="fill:#009fe8;fill-opacity:1;fill-rule:nonzero;stroke:none"
             d="m 0,0 v -23.671 c 0,-2.621 -1.146,-4.096 -4.096,-4.096 -2.948,0 -4.095,1.475 -4.095,4.096 v 55.533 c 0,2.621 1.147,4.096 4.095,4.096 2.95,0 4.096,-1.475 4.096,-4.096 V 8.191 h 24.08 v 23.671 c 0,2.621 1.148,4.096 4.096,4.096 2.949,0 4.095,-1.475 4.095,-4.096 v -55.533 c 0,-2.621 -1.146,-4.096 -4.095,-4.096 -2.948,0 -4.096,1.475 -4.096,4.096 L 24.08,0 Z" /></g><g
           transform="translate(1201.4004,218.8754)"
           id="g268"><path
             id="path270"
             style="fill:#009fe8;fill-opacity:1;fill-rule:nonzero;stroke:none"
             d="m 0,0 c -1.291,0 -3.456,-0.215 -3.456,-1.654 v -5.242 c 0,-1.393 3.259,-1.409 3.292,-1.409 h 8.247 l 7.331,3.804 v 0.636 C 15.414,-0.47 14.955,0 11.63,0 Z m 21.705,-19.74 c -1.574,0 -3.123,0.671 -4.249,1.839 -0.374,0.388 -0.685,0.816 -0.928,1.27 l -3.424,-1.764 c -2.51,-1.301 -2.897,-1.345 -5.651,-1.345 h -7.536 c -3.933,0 -6.841,0.523 -10.066,3.195 -3.935,3.247 -4.743,6.762 -4.743,11.041 v 3.44 c 0,4.422 1.247,7.253 4.449,10.099 3.411,2.997 7.151,3.4 10.36,3.4 h 15.088 v 0.016 c 0,4.761 -0.339,5.094 -5.176,5.094 H 0.082 c -6.492,0 -7.193,3.999 -7.193,5.718 0,2.608 1.248,5.717 7.193,5.717 h 10.812 c 4.034,0 7.678,-0.304 11.419,-4.044 3.626,-3.627 3.963,-6.666 4.044,-10.564 l 0.819,-26.685 c 0.069,-1.916 -0.543,-3.696 -1.679,-4.873 -0.98,-1.016 -2.292,-1.554 -3.792,-1.554" /></g><g
           transform="translate(1201.4004,220.6615)"
           id="g272"><path
             id="path274"
             style="fill:#009fe8;fill-opacity:1;fill-rule:nonzero;stroke:none"
             d="m 0,0 c -2.13,0 -5.242,-0.574 -5.242,-3.44 v -5.243 c 0,-2.621 3.194,-3.194 5.078,-3.194 h 8.683 l 8.681,4.505 v 1.721 C 17.2,-1.311 15.972,0 11.63,0 Z m 0.082,16.545 c -2.294,0 -5.407,0.491 -5.407,3.932 0,3.358 2.786,3.931 5.407,3.931 h 10.812 c 4.095,0 7.043,-0.409 10.156,-3.522 3.03,-3.031 3.44,-5.406 3.522,-9.337 l 0.819,-26.702 c 0.083,-2.293 -1.065,-4.587 -3.686,-4.587 -2.047,0 -4.095,1.72 -4.013,3.931 l -5.407,-2.785 C 10.074,-19.74 9.992,-19.74 7.453,-19.74 h -7.536 c -3.521,0 -6.061,0.41 -8.927,2.785 -3.276,2.702 -4.095,5.569 -4.095,9.665 v 3.439 c 0,3.769 0.9,6.144 3.849,8.765 2.703,2.375 5.734,2.948 9.173,2.948 h 16.874 v 1.803 c 0,5.898 -1.311,6.88 -6.962,6.88 z" /></g><g
           transform="translate(1281.8301,199.1351)"
           id="g276"><path
             id="path278"
             style="fill:#009fe8;fill-opacity:1;fill-rule:nonzero;stroke:none"
             d="M 0,0 C -1.987,0 -3.31,1.071 -4.372,1.932 -4.509,2.043 -4.647,2.155 -4.788,2.267 L -23.381,17.771 -24.915,16.39 V 7.192 C -24.915,1.248 -28.024,0 -30.633,0 c -2.608,0 -5.718,1.248 -5.718,7.192 v 49.554 c 0,3.281 0.993,7.192 5.718,7.192 2.609,0 5.718,-1.248 5.718,-7.192 V 31.422 l 15.084,12.685 0.411,0.369 c 1.524,1.369 3.609,3.245 5.981,3.245 3.152,0 5.717,-2.603 5.717,-5.8 0,-2.629 -1.623,-3.959 -3.054,-5.131 L -14.567,25.373 2.629,11.068 C 4.077,9.878 5.718,8.527 5.718,5.8 5.718,2.603 3.153,0 0,0" /></g><g
           transform="translate(1273.1484,241.8754)"
           id="g280"><path
             id="path282"
             style="fill:#009fe8;fill-opacity:1;fill-rule:nonzero;stroke:none"
             d="m 0,0 c 1.393,1.229 3.358,3.194 5.242,3.194 2.211,0 3.932,-1.801 3.932,-4.013 0,-1.884 -1.229,-2.785 -2.621,-3.932 l -15.236,-12.613 18.512,-15.4 c 1.474,-1.227 2.784,-2.129 2.784,-4.176 0,-2.212 -1.719,-4.014 -3.931,-4.014 -1.556,0 -2.539,0.983 -3.686,1.884 l -19.739,16.464 -3.277,-2.949 v -9.993 c 0,-2.703 -0.573,-5.406 -3.931,-5.406 -3.359,0 -3.932,2.703 -3.932,5.406 v 49.554 c 0,2.703 0.573,5.406 3.932,5.406 3.358,0 3.931,-2.703 3.931,-5.406 v -29.159 z" /></g><g
           transform="translate(1322.3721,235.4203)"
           id="g284"><path
             id="path286"
             style="fill:#009fe8;fill-opacity:1;fill-rule:nonzero;stroke:none"
             d="m 0,0 c -1.934,0 -2.756,-0.424 -4.244,-1.699 -2.134,-1.83 -2.242,-2.451 -2.242,-3.313 v -14.826 c 0,-0.861 0.108,-1.482 2.242,-3.312 1.488,-1.276 2.31,-1.7 4.244,-1.7 h 6.225 c 1.934,0 2.755,0.424 4.244,1.7 2.134,1.83 2.242,2.451 2.242,3.312 v 14.826 c 0,0.862 -0.108,1.483 -2.242,3.313 C 8.98,-0.424 8.159,0 6.225,0 Z m 0,-36.285 c -5.411,0 -7.409,0.76 -11.879,4.514 -4.261,3.581 -6.043,6.03 -6.043,11.933 v 14.826 c 0,5.967 1.483,8.234 5.656,11.625 3.92,3.253 6.086,4.823 12.266,4.823 h 6.225 c 6.18,0 8.345,-1.57 12.28,-4.834 4.159,-3.38 5.641,-5.647 5.641,-11.614 v -14.826 c 0,-5.903 -1.781,-8.352 -6.042,-11.933 -4.47,-3.754 -6.468,-4.514 -11.879,-4.514 z" /></g><g
           transform="translate(1314.0996,215.5824)"
           id="g288"><path
             id="path290"
             style="fill:#009fe8;fill-opacity:1;fill-rule:nonzero;stroke:none"
             d="m 0,0 c 0,-1.638 0.573,-2.703 2.866,-4.668 1.721,-1.475 2.949,-2.13 5.406,-2.13 h 6.225 c 2.457,0 3.686,0.655 5.406,2.13 2.293,1.965 2.867,3.03 2.867,4.668 v 14.826 c 0,1.638 -0.574,2.702 -2.867,4.668 -1.72,1.475 -2.949,2.13 -5.406,2.13 H 8.272 c -2.457,0 -3.685,-0.655 -5.406,-2.13 C 0.573,17.528 0,16.464 0,14.826 Z m -7.863,14.826 c 0,5.242 1.064,7.044 4.996,10.238 3.849,3.195 5.651,4.423 11.139,4.423 h 6.225 c 5.488,0 7.29,-1.228 11.14,-4.423 3.931,-3.194 4.996,-4.996 4.996,-10.238 L 30.633,0 c 0,-5.16 -1.311,-7.125 -5.405,-10.565 -4.096,-3.441 -5.735,-4.096 -10.731,-4.096 H 8.272 c -4.996,0 -6.634,0.655 -10.729,4.096 C -6.553,-7.125 -7.863,-5.16 -7.863,0 Z" /></g><g
           transform="translate(1379.623,235.4203)"
           id="g292"><path
             id="path294"
             style="fill:#009fe8;fill-opacity:1;fill-rule:nonzero;stroke:none"
             d="m 0,0 c -0.435,0 -1.467,-0.859 -1.806,-1.142 l -2.408,-1.911 c -0.553,-0.5 -0.553,-3.464 -0.553,-4.58 v -9.584 c 0,-1.116 0,-4.081 0.561,-4.586 l 2.367,-1.878 C -1.467,-23.99 -0.435,-24.85 0,-24.85 h 5.569 c 0.332,0 1.316,0.317 2.663,1.514 l 4.532,3.874 c 1.037,0.888 1.667,1.472 1.667,2.082 v 9.91 c 0,0.611 -0.63,1.195 -1.669,2.084 L 8.259,-1.538 C 6.885,-0.316 5.901,0 5.569,0 Z m 20.148,-36.285 c -2.581,0 -4.412,1.366 -5.232,3.776 -2.909,-2.517 -5.569,-3.776 -7.954,-3.776 h -7.617 c -3.265,0 -6.581,2.103 -7.879,3.215 l -2.696,2.288 c -3.717,3.159 -4.972,5.797 -4.972,10.453 v 15.808 c 0,4.657 1.255,7.294 4.97,10.454 l 2.704,2.294 c 2.765,2.396 4.962,3.209 8.691,3.209 h 6.962 c 2.772,0 5.024,-1.242 7.306,-3.23 v 12.255 c 0,5.944 3.11,7.192 5.717,7.192 2.609,0 5.718,-1.248 5.718,-7.192 v -49.473 c 0,-6.011 -3.109,-7.273 -5.718,-7.273" /></g><g
           transform="translate(1373.0703,218.2035)"
           id="g296"><path
             id="path298"
             style="fill:#009fe8;fill-opacity:1;fill-rule:nonzero;stroke:none"
             d="m 0,0 c 0,-2.211 0,-4.996 1.229,-5.979 l 2.375,-1.884 c 0.983,-0.819 1.965,-1.556 2.949,-1.556 h 5.569 c 0.983,0 2.375,0.655 3.85,1.966 l 4.505,3.849 c 1.147,0.983 2.293,1.966 2.293,3.441 v 9.91 c 0,1.475 -1.146,2.458 -2.293,3.441 l -4.505,3.849 c -1.475,1.311 -2.867,1.966 -3.85,1.966 H 6.553 c -0.984,0 -1.966,-0.737 -2.949,-1.556 L 1.229,15.563 C 0,14.58 0,11.795 0,9.584 Z m 13.678,26.866 c 2.704,0 4.915,-1.474 7.781,-4.341 l 1.311,-1.392 v 16.545 c 0,2.703 0.574,5.406 3.931,5.406 3.36,0 3.932,-2.703 3.932,-5.406 v -49.473 c 0,-2.702 -0.572,-5.487 -3.932,-5.487 -3.111,0 -3.931,2.621 -3.931,5.242 v 0.491 l -1.72,-1.72 c -2.457,-2.293 -5.16,-4.013 -7.535,-4.013 H 5.897 c -2.621,0 -5.57,1.802 -6.716,2.785 l -2.703,2.293 c -3.277,2.785 -4.341,4.915 -4.341,9.092 v 15.808 c 0,4.177 1.064,6.307 4.341,9.092 l 2.703,2.293 c 2.457,2.13 4.258,2.785 7.535,2.785 z" /></g><g
           transform="translate(1437.2832,218.8754)"
           id="g300"><path
             id="path302"
             style="fill:#009fe8;fill-opacity:1;fill-rule:nonzero;stroke:none"
             d="m 0,0 c -1.291,0 -3.456,-0.215 -3.456,-1.654 v -5.242 c 0,-1.393 3.259,-1.409 3.292,-1.409 h 8.247 l 7.331,3.804 v 0.636 C 15.414,-0.47 14.955,0 11.63,0 Z m 21.705,-19.74 c -1.574,0 -3.123,0.671 -4.249,1.839 -0.374,0.388 -0.685,0.816 -0.928,1.27 l -3.424,-1.764 c -2.51,-1.301 -2.897,-1.345 -5.651,-1.345 h -7.536 c -3.933,0 -6.841,0.523 -10.066,3.195 -3.935,3.247 -4.743,6.762 -4.743,11.041 v 3.44 c 0,4.422 1.247,7.253 4.449,10.099 3.411,2.997 7.151,3.4 10.36,3.4 h 15.088 v 0.016 c 0,4.761 -0.339,5.094 -5.176,5.094 H 0.082 c -6.492,0 -7.193,3.999 -7.193,5.718 0,2.608 1.248,5.717 7.193,5.717 h 10.812 c 4.034,0 7.678,-0.304 11.419,-4.044 3.626,-3.627 3.963,-6.666 4.044,-10.564 l 0.819,-26.685 c 0.069,-1.916 -0.543,-3.696 -1.679,-4.873 -0.98,-1.016 -2.292,-1.554 -3.792,-1.554" /></g><g
           transform="translate(1437.2832,220.6615)"
           id="g304"><path
             id="path306"
             style="fill:#009fe8;fill-opacity:1;fill-rule:nonzero;stroke:none"
             d="m 0,0 c -2.13,0 -5.242,-0.574 -5.242,-3.44 v -5.243 c 0,-2.621 3.194,-3.194 5.078,-3.194 h 8.683 l 8.681,4.505 v 1.721 C 17.2,-1.311 15.972,0 11.63,0 Z m 0.082,16.545 c -2.294,0 -5.407,0.491 -5.407,3.932 0,3.358 2.786,3.931 5.407,3.931 h 10.812 c 4.095,0 7.043,-0.409 10.156,-3.522 3.03,-3.031 3.44,-5.406 3.522,-9.337 l 0.819,-26.702 c 0.083,-2.293 -1.065,-4.587 -3.686,-4.587 -2.047,0 -4.095,1.72 -4.013,3.931 l -5.407,-2.785 C 10.074,-19.74 9.992,-19.74 7.453,-19.74 h -7.536 c -3.521,0 -6.061,0.41 -8.927,2.785 -3.276,2.702 -4.095,5.569 -4.095,9.665 v 3.439 c 0,3.769 0.9,6.144 3.849,8.765 2.703,2.375 5.734,2.948 9.173,2.948 h 16.874 v 1.803 c 0,5.898 -1.311,6.88 -6.962,6.88 z" /></g><g
           transform="translate(1504.1172,199.1351)"
           id="g308"><path
             id="path310"
             style="fill:#009fe8;fill-opacity:1;fill-rule:nonzero;stroke:none"
             d="m 0,0 c -5.001,0 -8.646,1.433 -11.472,4.51 -3.353,3.716 -3.345,7.528 -3.339,11.564 l 10e-4,20.211 h -0.753 c -6.491,0 -7.192,3.999 -7.192,5.718 0,2.608 1.248,5.718 7.192,5.718 h 0.753 v 6.241 c 0,5.944 3.11,7.191 5.718,7.191 2.608,0 5.718,-1.247 5.718,-7.191 v -6.241 h 11.4 c 5.945,0 7.193,-3.11 7.193,-5.718 0,-1.719 -0.701,-5.718 -7.193,-5.718 h -11.4 L -3.375,16.23 C -3.377,14.3 -3.379,12.632 -2.807,12.059 -2.398,11.65 -1.4,11.436 0.082,11.436 h 4.013 c 2.979,0 3.26,0.157 3.758,2.097 0.719,2.759 2.941,4.537 5.662,4.537 3.197,0 5.798,-2.565 5.798,-5.717 0,-2.747 -1.618,-5.917 -3.123,-7.704 C 12.787,0.564 8.326,0 4.013,0 Z" /></g><g
           transform="translate(1498.957,215.7464)"
           id="g312"><path
             id="path314"
             style="fill:#009fe8;fill-opacity:1;fill-rule:nonzero;stroke:none"
             d="m 0,0 c 0,-4.423 -0.164,-6.962 5.242,-6.962 h 4.013 c 3.194,0 4.669,0.245 5.488,3.441 0.491,1.883 1.966,3.194 3.932,3.194 2.212,0 4.012,-1.72 4.012,-3.932 0,-2.212 -1.392,-4.997 -2.703,-6.553 -2.866,-3.44 -6.633,-4.013 -10.811,-4.013 H 5.16 c -3.931,0 -7.372,0.9 -10.157,3.931 -3.03,3.359 -2.866,6.717 -2.866,10.976 V 21.46 h -2.539 c -2.294,0 -5.407,0.491 -5.407,3.932 0,3.358 2.786,3.931 5.407,3.931 h 2.539 v 8.028 c 0,2.703 0.573,5.405 3.931,5.405 3.358,0 3.932,-2.702 3.932,-5.405 v -8.028 h 13.187 c 2.621,0 5.406,-0.573 5.406,-3.931 0,-3.441 -3.114,-3.932 -5.406,-3.932 H 0 Z" /></g><g
           transform="translate(1570.9658,226.9525)"
           id="g316"><path
             id="path318"
             style="fill:#009fe8;fill-opacity:1;fill-rule:nonzero;stroke:none"
             d="m 0,0 0.002,3.268 c 0.005,1.347 -0.043,1.731 -0.409,2.07 L -3.396,7.92 c -0.597,0.548 -2,0.548 -2.598,0.548 h -6.635 c -1.451,0 -2.185,-0.025 -3.002,-0.586 l -2.664,-1.939 c -0.707,-0.531 -0.902,-0.677 -0.902,-2.16 l 0,-3.783 z m -14.431,-27.817 c -3.387,0 -5.253,0 -8.214,2.565 l -3.367,2.957 c -3.588,3.21 -4.621,5.492 -4.621,10.188 V 3.046 c 0,4.522 0.714,7.579 4.479,10.78 l 2.783,2.374 c 4.073,3.53 6.285,3.703 9.841,3.703 h 7.208 c 4.076,0 6.34,-0.454 9.806,-3.265 l 3.182,-2.529 c 4.405,-3.504 4.77,-7.504 4.77,-11.636 v -6.307 c 0,-5.042 -1.113,-7.602 -7.192,-7.602 h -23.441 v -0.835 c 0.02,-0.172 0.292,-0.699 0.623,-1.03 l 2.015,-2.181 c 0.514,-0.554 1.353,-0.9 3.93,-0.9 H 4.244 c 5.944,0 7.192,-3.109 7.192,-5.718 0,-1.718 -0.701,-5.717 -7.192,-5.717 z" /></g><g
           transform="translate(1549.9824,225.1664)"
           id="g320"><path
             id="path322"
             style="fill:#009fe8;fill-opacity:1;fill-rule:nonzero;stroke:none"
             d="m 0,0 h 22.77 v 4.75 c 0,1.475 0.083,2.703 -0.983,3.687 l -3.03,2.621 c -0.984,0.9 -2.54,0.982 -3.768,0.982 H 8.354 c -1.474,0 -2.703,0 -4.013,-0.9 L 1.638,9.174 C 0.655,8.437 0,7.863 0,5.569 Z m 6.553,-24.245 c -3.277,0 -4.587,0 -7.044,2.13 l -3.359,2.948 c -3.113,2.785 -4.013,4.587 -4.013,8.846 V 4.832 c 0,4.178 0.573,6.635 3.849,9.42 l 2.785,2.375 c 3.686,3.194 5.488,3.276 8.682,3.276 h 7.208 c 3.85,0 5.652,-0.409 8.683,-2.867 l 3.194,-2.539 C 30.142,11.631 30.633,8.6 30.633,4.259 v -6.307 c 0,-4.505 -0.737,-5.815 -5.405,-5.815 H 0 v -2.621 c 0,-0.738 0.573,-1.721 1.146,-2.293 l 1.966,-2.13 c 1.065,-1.148 2.621,-1.475 5.242,-1.475 h 16.874 c 2.621,0 5.405,-0.573 5.405,-3.931 0,-3.441 -3.112,-3.932 -5.405,-3.932 z" /></g></g></g></g></svg>